# xmcd
#
# Track frame offsets:
#	150
#	15975
#	32625
#	50250
#	66225
#	85650
#	101625
#	116250
#	134625
#	150450
#	166125
#	181950
#	198600
#	216225
#	232200
#	251625
#	267600
#	282225
#	300600
#	316425
#
# Disc length: 4428 seconds
#
# Revision: 2
# Processed by: cddbd v1.5.2PL0 Copyright (c) Steve Scherf et al.
# Submitted via: audiograbber 1.83.01
#
DISCID=1c114a14
DTITLE=Top Hits Monthly Country - CHM9708
DYEAR=1997
DGENRE=Karaoke
TTITLE0=Neal McCoy - The Shake (Vocal)
TTITLE1=Alabama - Dancin', Shaggin' On The Boulevard (Vocal)
TTITLE2=Lila McCann - Down Came A Blackbird (Vocal)
TTITLE3=Alan Jackson - There Goes (Vocal)
TTITLE4=John Michael Montgomery - How Was I To Know (Vocal)
TTITLE5=Lee Ann Womack - The Fool (Vocal)
TTITLE6=Ricochet - He Left A Lot To Be Desired (Vocal)
TTITLE7=Toby Keith - We Were In Love (Vocal)
TTITLE8=Kenny Chesney - She's Got It All (Vocal)
TTITLE9=Sherrie Austin - Lucky In Love (Vocal)
TTITLE10=Neal McCoy - The Shake
TTITLE11=Alabama - Dancin', Shaggin' On The Boulevard
TTITLE12=Lial McCann - Down Came A Blackbird
TTITLE13=Alan Jackson - There Goes
TTITLE14=John Michael Montgomery - How Was I To Know
TTITLE15=Lee Ann Womack - The Fool
TTITLE16=Ricochet - He Left A Lot To Be Desired
TTITLE17=Toby Keith - We Were In Love
TTITLE18=Kenny Chesney - She's Got It All
TTITLE19=Sherrie Austin - Lucky In Love
EXTD=
EXTT0=
EXTT1=
EXTT2=
EXTT3=
EXTT4=
EXTT5=
EXTT6=
EXTT7=
EXTT8=
EXTT9=
EXTT10=
EXTT11=
EXTT12=
EXTT13=
EXTT14=
EXTT15=
EXTT16=
EXTT17=
EXTT18=
EXTT19=
PLAYORDER=
